<svg version="1" xmlns="http://www.w3.org/2000/svg" width="2400" height="2400" viewBox="0 0 1800.000000 1800.000000"><path d="M180 1.5C86 13.2 12.8 86.7 1.5 181c-2.1 17.2-2.1 1420.8 0 1438 3.9 32.4 14.9 62.7 32.4 89.1 33.6 50.5 86.6 83.1 147.1 90.4 17.2 2.1 1420.8 2.1 1438 0 60.5-7.3 113.5-39.9 147.1-90.4 17.5-26.4 28.5-56.7 32.4-89.1 2.1-17.2 2.1-1420.8 0-1438-7.3-60.5-39.9-113.5-90.4-147.1-26.4-17.5-56.7-28.5-89.1-32.4-16.6-2.1-1422.8-2-1439 0zm1074.9 391.8c12.1 4.3 19.9 9.3 29.2 18.6 6.9 6.9 9.4 10.3 12.8 17.1 9.3 19.1 9.4 36 .2 63-8 23.7-330.4 870.9-334.9 880-6.2 12.8-18 25-29.2 30.3-12.7 6-18.5 7.2-36 7.1-14.3 0-16.1-.2-22.9-2.7-12.3-4.5-19.9-9.3-29.1-18.6-20.9-21-25.1-44.8-13.8-78.5 7.2-21.5 331.2-873 335.4-881.4 7.6-15.2 21-27.9 34.9-33.1 10.5-3.9 18.3-5.1 32.5-4.7 11.5.3 14.6.7 20.9 2.9zm-620.6 785c20.3 5.4 38.1 16 53 31.7 40.8 43 40.8 107.9.1 151.9-12.4 13.4-34.2 26.5-51.9 31-37.7 9.8-76.4 0-104.5-26.6-40-37.7-46.4-98.4-15-143.7 5.9-8.6 20.9-23.5 29-28.7 12.7-8.4 25.3-13.6 40.8-17 12.8-2.8 35-2.1 48.5 1.4z"/></svg>